<svg id="visual" viewBox="0 0 900 600" width="900" height="600" xmlns="http://www.w3.org/2000/svg" xmlns:xlink="http://www.w3.org/1999/xlink" version="1.1"><path d="M0 448L21.5 445.5C43 443 86 438 128.8 445.5C171.7 453 214.3 473 257.2 481.3C300 489.7 343 486.3 385.8 468.3C428.7 450.3 471.3 417.7 514.2 408.8C557 400 600 415 642.8 431.2C685.7 447.3 728.3 464.7 771.2 465.2C814 465.7 857 449.3 878.5 441.2L900 433L900 601L878.5 601C857 601 814 601 771.2 601C728.3 601 685.7 601 642.8 601C600 601 557 601 514.2 601C471.3 601 428.7 601 385.8 601C343 601 300 601 257.2 601C214.3 601 171.7 601 128.8 601C86 601 43 601 21.5 601L0 601Z" fill="#9f0e13" stroke-linecap="round" stroke-linejoin="miter"></path></svg>