<svg id="visual" viewBox="0 0 900 600" width="900" height="600" xmlns="http://www.w3.org/2000/svg" xmlns:xlink="http://www.w3.org/1999/xlink" version="1.1"><path d="M0 150L21.5 152.5C43 155 86 160 128.8 152.5C171.7 145 214.3 125 257.2 116.7C300 108.3 343 111.7 385.8 129.7C428.7 147.7 471.3 180.3 514.2 189.2C557 198 600 183 642.8 166.8C685.7 150.7 728.3 133.3 771.2 132.8C814 132.3 857 148.7 878.5 156.8L900 165L900 0L878.5 0C857 0 814 0 771.2 0C728.3 0 685.7 0 642.8 0C600 0 557 0 514.2 0C471.3 0 428.7 0 385.8 0C343 0 300 0 257.2 0C214.3 0 171.7 0 128.8 0C86 0 43 0 21.5 0L0 0Z" fill="#9f0e13" stroke-linecap="round" stroke-linejoin="miter"></path></svg>